# xmcd
#
# Track frame offsets: 
#        150
#        9715
#        22362
#        34916
#        47347
#        59942
#        75841
#        88853
#        103331
#        134864
#        158741
#        178334
#        194634
#        218929
#        237777
#        262911
#        280860
#        302142
#        324809
#        339348
#
# Disc length: 4741 seconds
#
# Revision: 10
# Processed by: cddbd v1.5.2PL0 Copyright (c) Steve Scherf et al.
# Submitted via: ExactAudioCopy v0.99pb4
#
DISCID=28128314
DTITLE=FR. Tube 80`s - 100 Tubes Annes 80`s [CD4)
DYEAR=2014
DGENRE=Pop
TTITLE0=IIs S`aiment - Daniel Lavoie
TTITLE1=J`ai Faim De Toi - Sandy Stevens
TTITLE2=Tout Est Pardonne - Marie Myriam
TTITLE3=La P`tite Lady - Vivien Savage
TTITLE4=Elle Imagine... - Nacash
TTITLE5=Et Tu Danses Avec Lui - C. Jerome
TTITLE6=J`aurais Volou Te Dire - Caroline Legrand
TTITLE7=L`Enfant - Jeanne Mas 
TTITLE8=Comme Au Cinema - Alain Delon
TTITLE9=Premier Frissons D`amour - Christine Roque
TTITLE10=Tu Dis Que Tu L`M - Dennis`Twist
TTITLE11=Le Pull-Over Blanc - Graziella De Michele
TTITLE12=Pleurer De Rivieres - Viktor Lazlo
TTITLE13=Jardins D`Enfant - Debut De Soiree
TTITLE14=Louise - Gerad Berliner
TTITLE15=Quand Tu Serres Mon Corps - Pacifique
TTITLE16=Quand Je T`aime - Demis Roussos
TTITLE17=On Se Retrouvera (B.O.F "Le Passage") - Francis Lalanne
TTITLE18=Est-Ce Que Tu Viennes Pour Les Vacances? - David and Jonathan
TTITLE19=Quand Tu M`aimes - Herbert Leonard
EXTD=The Godfather
EXTT0=
EXTT1=
EXTT2=
EXTT3=
EXTT4=
EXTT5=
EXTT6=
EXTT7=
EXTT8=
EXTT9=
EXTT10=
EXTT11=
EXTT12=
EXTT13=
EXTT14=
EXTT15=
EXTT16=
EXTT17=
EXTT18=
EXTT19=
PLAYORDER=
